<?xml version="1.0" standalone="no"?><!DOCTYPE svg PUBLIC "-//W3C//DTD SVG 1.1//EN" "http://www.w3.org/Graphics/SVG/1.1/DTD/svg11.dtd"><svg t="1615530501304" class="icon" viewBox="0 0 1024 1024" version="1.1" xmlns="http://www.w3.org/2000/svg" p-id="5830" width="48" height="48" xmlns:xlink="http://www.w3.org/1999/xlink"><defs><style type="text/css"></style></defs><path d="M260.26 523.88c18.68-101.18 67.02-191.26 140-260.58a72.98 72.98 0 0 0 4.34-100.22 66.3 66.3 0 0 0-96.3-4.52C212.92 249.2 149.9 367.04 126 499.38q-2.22 12.22-4 24.5V884h333.48V523.88zM706.76 523.88c18.68-101.18 67.02-191.26 140-260.58a72.98 72.98 0 0 0 4.34-100.22 66.3 66.3 0 0 0-96.3-4.52c-95.3 90.62-158.32 208.46-182.26 340.82q-2.22 12.22-4 24.5V884H902V523.88z" p-id="5831"></path></svg>