<?xml version="1.0" standalone="no"?><!DOCTYPE svg PUBLIC "-//W3C//DTD SVG 1.1//EN" "http://www.w3.org/Graphics/SVG/1.1/DTD/svg11.dtd"><svg t="1615530432418" class="icon" viewBox="0 0 1024 1024" version="1.1" xmlns="http://www.w3.org/2000/svg" p-id="4992" width="48" height="48" xmlns:xlink="http://www.w3.org/1999/xlink"><defs><style type="text/css"></style></defs><path d="M1017.674 54.666l0 435.94c1.852 62.72-7.19 121.62-27.132 176.698-19.934 55.072-47.882 103.532-84.054 145.394-36.054 41.732-79.186 76.4-129.622 104-50.324 27.478-104.93 45.102-163.83 52.634l0-188.056c72.226-24.696 121.62-61.216 148.174-109.68 26.664-48.464 39.882-107.824 39.882-178.086l-188.052 0L613.04 54.672l404.63 0L1017.67 54.666zM410.726 54.666l0 435.94c1.968 62.72-7.072 121.62-27.012 176.692-19.94 55.078-47.994 103.538-84.056 145.394-36.054 41.738-79.304 76.406-129.622 104-50.322 27.478-105.048 45.102-163.946 52.64l0-188.056c72.232-24.696 121.626-61.216 148.174-109.68 26.67-48.47 39.882-107.83 39.882-178.086L6.09 493.51 6.09 54.672l404.636 0L410.726 54.666zM410.726 54.666" p-id="4993"></path></svg>