<?xml version="1.0" standalone="no"?><!DOCTYPE svg PUBLIC "-//W3C//DTD SVG 1.1//EN" "http://www.w3.org/Graphics/SVG/1.1/DTD/svg11.dtd"><svg t="1615701231563" class="icon" viewBox="0 0 1024 1024" version="1.1" xmlns="http://www.w3.org/2000/svg" p-id="2139" width="48" height="48" xmlns:xlink="http://www.w3.org/1999/xlink"><defs><style type="text/css"></style></defs><path d="M98 733v154c329.7-17.4 344.3-410.9 344.3-410.9V202.3c0-37.8-31.5-68.5-70.4-68.5H168.5c-38.9 0-70.5 30.7-70.5 68.5v239.6c0 37.8 31.5 68.5 70.5 68.5h64.8C248 699.9 98 733 98 733zM924.6 476.1V202.3c0-37.8-31.5-68.5-70.4-68.5H650.8c-38.9 0-70.5 30.7-70.5 68.5v239.6c0 37.8 31.5 68.5 70.5 68.5h64.8C730.4 699.8 580.3 733 580.3 733v154c329.8-17.4 344.3-410.9 344.3-410.9z" p-id="2140"></path></svg>